<?xml version="1.0" encoding="iso-8859-1"?>
<!-- Generator: Adobe Illustrator 16.0.0, SVG Export Plug-In . SVG Version: 6.00 Build 0)  -->
<!DOCTYPE svg PUBLIC "-//W3C//DTD SVG 1.1//EN" "http://www.w3.org/Graphics/SVG/1.1/DTD/svg11.dtd">
<svg version="1.1" id="Capa_1" xmlns="http://www.w3.org/2000/svg" xmlns:xlink="http://www.w3.org/1999/xlink" x="0px" y="0px"
	 width="554.156px" height="554.156px" viewBox="0 0 554.156 554.156" style="enable-background:new 0 0 554.156 554.156;"
	 xml:space="preserve">
<g>
	<g>
		<path d="M233.698,350.02v-26.058c0-5.279,4.284-9.562,9.562-9.562h3.978c5.279,0,9.562-3.863,9.562-8.636
			c0-4.771-4.284-8.635-9.562-8.635h-3.978c-5.278,0-9.562-4.284-9.562-9.562v-83.452c0-5.278-4.284-9.562-9.562-9.562h-4.992
			c-5.278,0-12.01,3.51-15.042,7.842l-62.673,89.696c-3.021,4.332-5.479,11.083-5.479,15.08s4.284,7.238,9.562,7.238h57.547
			c5.278,0,9.562,4.284,9.562,9.562v26.059c0,5.278,4.284,9.562,9.562,9.562h1.951C229.423,359.582,233.698,355.298,233.698,350.02z
			 M158.556,296.871c0-0.134,2.496-3.729,5.584-8.014l34.779-48.339c3.137-5.23,6.034-10.222,9.18-15.95
			c2.543-4.628,4.705-8.424,4.915-8.424s0.125,4.274-0.077,9.553c-0.201,5.44-0.306,10.892-0.306,16.333v45.536
			c0,5.278-4.284,9.562-9.562,9.562h-34.941C162.84,297.129,158.556,297.015,158.556,296.871z"/>
		<path d="M392.627,209.097c5.039,1.578,10.145-0.555,11.686-5.527c1.539-4.981-1.1-10.844-6.168-12.326
			c-8.387-2.457-20.188-4.542-33.947-4.542c-57.375,0-92.67,37.312-92.67,88.357c0,26.651,9.141,49.496,23.868,63.725
			c16.754,15.989,38.088,22.577,63.982,22.577c17.395,0,32.914-3.165,43.75-6.35c5.066-1.491,9.064-7.324,9.064-12.604v-63.131
			c0-5.279-4.283-9.562-9.562-9.562h-37.236c-5.279,0-9.562,3.978-9.562,8.893c0,4.905,4.283,8.894,9.562,8.894h15.404
			c5.279,0,9.562,4.284,9.562,9.562v31.9c0,5.278-3.91,11.379-9.094,12.412c-5.25,1.052-12.049,1.721-20.357,1.721
			c-40.115,0-66-25.646-66-69.069c0-42.897,27.156-68.803,68.801-68.803C375.807,205.224,385.033,206.716,392.627,209.097z"/>
		<path d="M63.313,277.105c0,27.023,17.174,51.102,42.745,59.861c1.396,0.487,2.926,0.392,4.255-0.259
			c1.348-0.65,2.343-1.798,2.831-3.193c0.975-2.859-0.612-6.13-3.462-7.096c-21.047-7.229-35.19-27.043-35.19-49.304
			c0-20.378,11.972-38.996,30.495-47.459c1.778-0.804,3.605-1.512,5.422-2.113c2.314-0.746,3.863-2.879,3.863-5.308
			c0-0.593-0.096-1.157-0.268-1.74c-0.956-2.917-4.112-4.542-7.038-3.586c-2.276,0.746-4.513,1.606-6.626,2.572
			C77.848,229.78,63.313,252.376,63.313,277.105z"/>
		<path d="M31.04,277.105c0,38.489,22.912,73.066,58.37,88.061c2.831,1.177,6.12-0.152,7.325-2.983
			c1.147-2.782-0.229-6.148-2.974-7.324c-31.308-13.244-51.542-43.777-51.542-77.753c0-30.199,16.285-58.274,42.505-73.287
			c2.926-1.684,5.996-3.194,9.142-4.542c2.075-0.88,3.414-2.897,3.414-5.136c0-0.746-0.153-1.473-0.44-2.161
			c-0.593-1.387-1.673-2.467-3.05-3.002c-1.377-0.584-2.897-0.564-4.274,0.019c-3.538,1.492-7.019,3.232-10.347,5.135
			C49.476,211.124,31.04,242.929,31.04,277.105z"/>
		<path d="M77.332,393.758c2.831,1.195,6.12-0.152,7.325-2.983c1.176-2.802-0.229-6.168-2.974-7.324
			c-42.84-18.121-70.504-59.861-70.504-106.345c0-44.677,26.144-85.767,66.641-104.643c1.31-0.612,2.62-1.215,3.959-1.76
			c2.084-0.898,3.414-2.917,3.414-5.154c0-0.746-0.153-1.473-0.44-2.171c-0.583-1.386-1.654-2.447-3.031-3.002
			c-1.377-0.564-2.907-0.564-4.284,0.038c-1.454,0.593-2.897,1.253-4.341,1.902C28.697,183.049,0,228.098,0,277.105
			C0,328.093,30.361,373.888,77.332,393.758z"/>
		<path d="M444.465,326.409c-2.85,0.976-4.447,4.236-3.461,7.096c0.486,1.396,1.482,2.544,2.83,3.194
			c1.338,0.649,2.859,0.745,4.256,0.258c25.57-8.759,42.744-32.838,42.744-59.861c0-24.729-14.535-47.325-37.018-57.614
			c-2.123-0.976-4.35-1.826-6.627-2.572c-2.936-0.956-6.09,0.669-7.037,3.586c-0.182,0.574-0.268,1.138-0.268,1.74
			c0,2.429,1.549,4.562,3.863,5.308c1.826,0.593,3.652,1.31,5.422,2.113c18.521,8.463,30.484,27.081,30.484,47.459
			C479.654,299.367,465.521,319.181,444.465,326.409z"/>
		<path d="M523.107,277.105c0-34.177-18.438-65.981-48.119-82.983c-3.328-1.903-6.809-3.644-10.346-5.136
			c-1.377-0.583-2.908-0.593-4.275-0.019c-1.377,0.545-2.467,1.625-3.051,3.002c-0.287,0.688-0.439,1.416-0.439,2.161
			c0,2.238,1.348,4.256,3.414,5.136c3.146,1.348,6.215,2.858,9.141,4.542c26.221,15.013,42.506,43.089,42.506,73.287
			c0,33.976-20.234,64.509-51.541,77.753c-2.744,1.176-4.131,4.542-2.975,7.324c1.205,2.841,4.494,4.16,7.324,2.984
			C500.205,350.173,523.107,315.595,523.107,277.105z"/>
		<path d="M481.061,162.316c-1.443-0.649-2.889-1.31-4.342-1.902c-1.387-0.593-2.906-0.593-4.283-0.038
			c-1.377,0.563-2.457,1.625-3.031,3.002c-0.287,0.688-0.439,1.425-0.439,2.171c0,2.237,1.338,4.256,3.412,5.154
			c1.35,0.545,2.65,1.138,3.959,1.76c40.488,18.886,66.643,59.966,66.643,104.643c0,46.483-27.674,88.233-70.506,106.345
			c-2.734,1.156-4.148,4.522-2.973,7.324c1.205,2.841,4.494,4.188,7.324,2.983c46.971-19.87,77.332-65.665,77.332-116.652
			C554.146,228.098,525.449,183.048,481.061,162.316z"/>
	</g>
</g>
<g>
</g>
<g>
</g>
<g>
</g>
<g>
</g>
<g>
</g>
<g>
</g>
<g>
</g>
<g>
</g>
<g>
</g>
<g>
</g>
<g>
</g>
<g>
</g>
<g>
</g>
<g>
</g>
<g>
</g>
</svg>
